<?xml version="1.0" encoding="UTF-8"?>
<svg id="Layer_1" data-name="Layer 1" xmlns="http://www.w3.org/2000/svg" viewBox="0 0 45 45">
  <defs>
    <style>
      .cls-1 {
        fill-rule: evenodd;
      }

      .cls-1, .cls-2 {
        stroke: #000;
      }

      .cls-1, .cls-2, .cls-3 {
        stroke-linejoin: round;
        stroke-width: 1.5px;
      }

      .cls-4 {
        stroke-width: 0px;
      }

      .cls-2, .cls-3 {
        fill: none;
      }

      .cls-3 {
        stroke: #ececec;
        stroke-linecap: round;
      }
    </style>
  </defs>
  <g>
    <circle class="cls-4" cx="6" cy="11.65" r="2.75"/>
    <circle class="cls-4" cx="14" cy="8.65" r="2.75"/>
    <circle class="cls-4" cx="22.5" cy="7.65" r="2.75"/>
    <circle class="cls-4" cx="31" cy="8.65" r="2.75"/>
    <circle class="cls-4" cx="39" cy="11.65" r="2.75"/>
  </g>
  <path class="cls-1" d="M9,25.65c8.5-1.5,21-1.5,27,0l2.5-12.5-7.5,11.5-.3-14.1-5.2,13.6-3-14.5-3,14.5-5.2-13.6-.3,14.1-7.5-11.5,2.5,12.5Z"/>
  <path class="cls-1" d="M9,25.65c0,2,1.5,2,2.5,4,1,1.5,1,1,.5,3.5-1.5,1-1.5,2.5-1.5,2.5-1.5,1.5.5,2.5.5,2.5,6.5,1,16.5,1,23,0,0,0,1.5-1,0-2.5,0,0,.5-1.5-1-2.5-.5-2.5-.5-2,.5-3.5,1-2,2.5-2,2.5-4-8.5-1.5-18.5-1.5-27,0Z"/>
  <path class="cls-2" d="M11,38.15c7.45,2.59,15.55,2.59,23,0"/>
  <path class="cls-3" d="M11,28.65c7.45-2.59,15.55-2.59,23,0M12.5,31.15h20M11.5,34.15c7.14,2.36,14.86,2.36,22,0M10.5,37.15c7.75,2.83,16.25,2.83,24,0"/>
</svg>