<?xml version="1.0" encoding="UTF-8"?>
<svg id="Layer_1" data-name="Layer 1" xmlns="http://www.w3.org/2000/svg" viewBox="0 0 45 45">
  <defs>
    <style>
      .cls-1 {
        stroke-linejoin: round;
      }

      .cls-1, .cls-2 {
        fill-rule: evenodd;
        stroke: #000;
        stroke-width: 1.5px;
      }

      .cls-3 {
        fill: none;
        stroke: #ececec;
        stroke-linecap: round;
      }
    </style>
  </defs>
  <path class="cls-1" d="M9,37.5h27v-3H9v3ZM12.5,30.5l1.5-2.5h17l1.5,2.5H12.5ZM12,34.5v-4h21v4H12Z"/>
  <path class="cls-2" d="M14,28v-13h17v13H14Z"/>
  <path class="cls-1" d="M14,15l-3-2.5h23l-3,2.5H14ZM11,12.5v-5h4v2h5v-2h5v2h5v-2h4v5H11Z"/>
  <path class="cls-3" d="M12,34h21M13,30h19M14,28h17M14,15h17M11,12.5h23"/>
</svg>