<?xml version="1.0" encoding="UTF-8"?>
<svg id="Layer_1" data-name="Layer 1" xmlns="http://www.w3.org/2000/svg" viewBox="0 0 45 45">
  <defs>
    <style>
      .cls-1 {
        fill: #fff;
        fill-rule: evenodd;
        stroke-linejoin: round;
      }

      .cls-1, .cls-2 {
        stroke: #000;
        stroke-width: 1.5px;
      }

      .cls-2 {
        fill: none;
        stroke-linecap: round;
      }
    </style>
  </defs>
  <g>
    <path class="cls-1" d="M9,36.34c3.39-.97,10.11.43,13.5-2,3.39,2.43,10.11,1.03,13.5,2,0,0,1.65.54,3,2-.68.97-1.65.99-3,.5-3.39-.97-10.11.46-13.5-1-3.39,1.46-10.11.03-13.5,1-1.35.49-2.32.47-3-.5,1.35-1.94,3-2,3-2Z"/>
    <path class="cls-1" d="M15,32.34c2.5,2.5,12.5,2.5,15,0,.5-1.5,0-2,0-2,0-2.5-2.5-4-2.5-4,5.5-1.5,6-11.5-5-15.5-11,4-10.5,14-5,15.5,0,0-2.5,1.5-2.5,4,0,0-.5.5,0,2Z"/>
    <path class="cls-1" d="M25,8.34c0,1.38-1.12,2.5-2.5,2.5s-2.5-1.12-2.5-2.5,1.12-2.5,2.5-2.5,2.5,1.12,2.5,2.5Z"/>
  </g>
  <path class="cls-2" d="M17.5,26.34h10M15,30.34h15M22.5,15.84v5M20,18.34h5"/>
</svg>