<?xml version="1.0" encoding="UTF-8"?>
<svg id="Layer_1" data-name="Layer 1" xmlns="http://www.w3.org/2000/svg" viewBox="0 0 45 45">
  <defs>
    <style>
      .cls-1, .cls-2 {
        fill: none;
      }

      .cls-1, .cls-2, .cls-3, .cls-4 {
        stroke: #000;
        stroke-width: 1.5px;
      }

      .cls-1, .cls-2, .cls-4 {
        stroke-linecap: round;
      }

      .cls-2, .cls-4 {
        stroke-linejoin: round;
      }

      .cls-3, .cls-4 {
        fill: #fff;
        fill-rule: evenodd;
      }
    </style>
  </defs>
  <path class="cls-1" d="M22.53,11.32v-5.63M20.03,7.69h5"/>
  <path class="cls-3" d="M22.53,24.69s4.5-7.5,3-10.5c0,0-1-2.5-3-2.5s-3,2.5-3,2.5c-1.5,3,3,10.5,3,10.5"/>
  <path class="cls-4" d="M11.53,36.69c5.5,3.5,15.5,3.5,21,0v-7s9-4.5,6-10.5c-4-6.5-13.5-3.5-16,4v3.5-3.5c-3.5-7.5-13-10.5-16-4-3,6,5,10,5,10v7.5Z"/>
  <path class="cls-2" d="M11.53,29.69c5.5-3,15.5-3,21,0M11.53,33.19c5.5-3,15.5-3,21,0M11.53,36.69c5.5-3,15.5-3,21,0"/>
</svg>