<?xml version="1.0" encoding="UTF-8"?>
<svg id="Layer_1" data-name="Layer 1" xmlns="http://www.w3.org/2000/svg" viewBox="0 0 45 45">
  <defs>
    <style>
      .cls-1 {
        fill: #fff;
      }

      .cls-1, .cls-2 {
        fill-rule: evenodd;
        stroke: #000;
        stroke-linecap: round;
        stroke-linejoin: round;
        stroke-width: 1.5px;
      }
    </style>
  </defs>
  <path class="cls-1" d="M22.49,9.5c10.5,1,16.5,8,16,29H15.49c0-9,10-6.5,8-21"/>
  <path class="cls-1" d="M24.49,17.5c.38,2.91-5.55,7.37-8,9-3,2-2.82,4.34-5,4-1.04-.94,1.41-3.04,0-3-1,0,.19,1.23-1,2-1,0-4,1-4-4,0-2,6-12,6-12,0,0,1.89-1.9,2-3.5-.73-.99-.5-2-.5-3,1-1,3,2.5,3,2.5h2s.78-1.99,2.5-3c1,0,1,3,1,3"/>
  <path class="cls-2" d="M9.99,25c0,.28-.22.5-.5.5s-.5-.22-.5-.5.22-.5.5-.5.5.22.5.5ZM15.42,15.25c-.41.72-.94,1.19-1.19,1.06-.24-.13-.1-.82.31-1.54,0,0,0-.01,0-.02.41-.72.94-1.19,1.19-1.06.24.13.1.82-.31,1.54,0,0,0,.01,0,.02Z"/>
</svg>