<?xml version="1.0" encoding="UTF-8"?>
<svg id="Layer_1" data-name="Layer 1" xmlns="http://www.w3.org/2000/svg" viewBox="0 0 45 45">
  <defs>
    <style>
      .cls-1, .cls-2, .cls-3 {
        stroke: #000;
        stroke-linejoin: round;
        stroke-width: 1.5px;
      }

      .cls-1, .cls-3 {
        fill: #fff;
        fill-rule: evenodd;
      }

      .cls-2 {
        fill: none;
      }

      .cls-2, .cls-3 {
        stroke-linecap: round;
      }
    </style>
  </defs>
  <path class="cls-3" d="M8,12.12c0,1.1-.9,2-2,2s-2-.9-2-2,.9-2,2-2,2,.9,2,2ZM24.5,7.62c0,1.1-.9,2-2,2s-2-.9-2-2,.9-2,2-2,2,.9,2,2ZM41,12.12c0,1.1-.9,2-2,2s-2-.9-2-2,.9-2,2-2,2,.9,2,2ZM16,8.62c0,1.1-.9,2-2,2s-2-.9-2-2,.9-2,2-2,2,.9,2,2ZM33,9.12c0,1.1-.9,2-2,2s-2-.9-2-2,.9-2,2-2,2,.9,2,2Z"/>
  <path class="cls-1" d="M9,26.12c8.5-1.5,21-1.5,27,0l2-12-7,11v-14l-5.5,13.5-3-15-3,15-5.5-14v14.5l-7-11,2,12Z"/>
  <path class="cls-1" d="M9,26.12c0,2,1.5,2,2.5,4,1,1.5,1,1,.5,3.5-1.5,1-1.5,2.5-1.5,2.5-1.5,1.5.5,2.5.5,2.5,6.5,1,16.5,1,23,0,0,0,1.5-1,0-2.5,0,0,.5-1.5-1-2.5-.5-2.5-.5-2,.5-3.5,1-2,2.5-2,2.5-4-8.5-1.5-18.5-1.5-27,0Z"/>
  <path class="cls-2" d="M11.5,30.12c3.5-1,18.5-1,22,0M12,33.62c6-1,15-1,21,0"/>
</svg>