<?xml version="1.0" encoding="UTF-8"?>
<svg id="Layer_1" data-name="Layer 1" xmlns="http://www.w3.org/2000/svg" viewBox="0 0 45 45">
  <defs>
    <style>
      .cls-1 {
        fill: #c64694;
      }

      .cls-1, .cls-2 {
        stroke-width: 0px;
      }

      .cls-2 {
        fill-rule: evenodd;
      }
    </style>
  </defs>
  <path class="cls-2" d="M21.93,42.75c-3.81,0-7.47-.75-10.32-2.12-2.18-1.14-2.33-3.2-2.25-4.67-.02-.57,0-1.3,0-2.07.02-.95.04-1.99-.02-2.76-4.78-3.02-6.81-6.44-6.02-10.17.72-3.83,3.87-6.42,7.84-6.42,1.06,0,2.12.19,3.15.56.41.11.96.26,1.45.26.09,0,.17,0,.26-.01,1.17-.07,1.66-.79,2.41-2.06.23-.39.47-.8.76-1.18.23-.28.45-.5.66-.71.2-.2.39-.39.49-.54.16-.24.24-1.01.15-1.81-.05,0-.36-.03-.47-.04-.74-.06-1.4-.41-1.76-.96-.31-.48-.38-1.06-.18-1.63.38-1.13,1.48-1.26,2.07-1.33.11-.01.25-.03.36-.05,0-.09,0-.27.02-.4.03-.45.07-1,.37-1.46.33-.57.94-.92,1.61-.92s1.28.35,1.61.92c.3.46.34,1.01.37,1.46,0,.12.02.28.04.4.1.02.25.04.36.06.59.09,2.37.37,2.15,2.23-.3,1.49-1.65,1.63-2.3,1.7-.07,0-.15.02-.22.03,0,.19,0,.45,0,.66,0,.22.01.44,0,.64,0,.42.33.77.89,1.34.5.52,1.08,1.1,1.36,1.95.17.5.73,1.7,2.04,1.7.29,0,.6-.06.92-.18,1.13-.4,2.28-.6,3.43-.6,3.33,0,6.26,1.66,7.81,4.43l.12.24c.84,1.58.96,3.3.36,5.08-1.25,3.67-5.28,6.56-6.9,7.39,0,.04,0,1.23,0,1.23-.03.57,0,1.12.01,1.71.07,2.24.17,5.3-3.06,6.36-2.69,1.12-6.11,1.75-9.57,1.75h0Z"/>
  <path class="cls-1" d="M22.51,3.25c.3,0,.6.15.76.45.36.51.07,1.63.5,2.08.62.51,2.43.03,2.26,1.41-.25,1.22-2.12.52-2.42,1.23-.18.51-.07,1.3-.09,1.88.03,1.59,1.82,2.21,2.29,3.64.49,1.42,1.58,2.38,2.99,2.38.4,0,.83-.08,1.27-.25,1-.35,2.04-.53,3.08-.53,2.77,0,5.46,1.28,6.94,3.92l.1.2c2.78,5.23-4.5,10.41-6.28,11.22-.36.2-.37.13-.37.95,0,.28,0,.66,0,1.09-.13,2.7.82,6.07-2.36,7.11-2.72,1.13-5.99,1.7-9.26,1.7-3.53,0-7.06-.67-9.89-2.02-1.47-.77-1.78-2.13-1.68-3.76-.06-1.44.13-4.06-.07-5.42-1.03-.66-7.11-4.05-5.98-9.37.66-3.51,3.55-5.63,6.86-5.62.92,0,1.87.16,2.81.5.59.17,1.19.32,1.79.32.12,0,.25,0,.37-.02,2.23-.14,2.78-2.17,3.86-3.65.39-.47.89-.87,1.17-1.27.47-.69.4-2.16.24-3-.17-.39-.68-.35-1.28-.42-.78-.06-1.35-.57-1.1-1.27.31-.92,1.64-.47,2.22-.96.43-.46.14-1.57.5-2.08.16-.3.46-.45.76-.45M22.51,1.25v2s0-2,0-2c-1.02,0-1.95.53-2.47,1.4-.32.51-.43,1.05-.48,1.5-.77.14-1.96.55-2.43,1.94-.29.84-.19,1.76.29,2.49.46.7,1.21,1.18,2.1,1.36,0,.17-.02.31-.05.4-.08.09-.23.24-.33.34-.21.21-.45.45-.69.74l-.04.05-.04.05c-.31.42-.56.85-.81,1.26-.77,1.29-1.01,1.54-1.56,1.57h-.05s-.05,0-.05,0c-.05,0-.1,0-.15,0-.34,0-.79-.11-1.19-.22-1.12-.4-2.27-.6-3.42-.6-4.46,0-8.01,2.92-8.82,7.26-.59,2.77,0,6.91,6.03,10.89.02.65,0,1.44,0,2.17-.01.76-.03,1.48,0,2.08-.13,2.66.79,4.52,2.76,5.55l.03.02.03.02c2.98,1.43,6.8,2.22,10.75,2.22,3.61,0,7.06-.63,9.96-1.82,3.87-1.32,3.74-5.07,3.67-7.32-.02-.56-.04-1.1-.01-1.58v-.05s0-.05,0-.05v-.65c1.83-1.1,5.56-3.88,6.84-7.65.69-2.03.54-4.06-.43-5.89l-.08-.16-.02-.04-.02-.04c-1.74-3.09-4.98-4.94-8.69-4.94-1.27,0-2.53.22-3.75.64-.25.09-.44.13-.61.13-.64,0-.96-.65-1.1-1.04-.34-1.04-1.03-1.74-1.58-2.31-.21-.21-.55-.57-.6-.7,0-.12,0-.24,0-.37.88-.19,2.15-.7,2.48-2.32l.02-.08v-.08c.11-.81.04-2.68-2.56-3.26-.05-.46-.15-1.01-.48-1.53-.51-.87-1.45-1.4-2.47-1.4h0Z"/>
</svg>