<?xml version="1.0" encoding="UTF-8"?>
<svg id="Layer_1" data-name="Layer 1" xmlns="http://www.w3.org/2000/svg" viewBox="0 0 45 45">
  <defs>
    <style>
      .cls-1 {
        fill: #c64694;
      }

      .cls-1, .cls-2 {
        stroke-width: 0px;
      }
    </style>
  </defs>
  <path class="cls-2" d="M37.58,41.09h-9.31c-4.16,0-8.59,0-11.07,0h0c-.95,0-1.78-.43-2.33-1.19-.66-.9-.86-2.12-.53-3.18.66-2.46,2.26-4.09,3.81-5.66,1.18-1.2,2.4-2.44,3.23-4.09.42-.7.52-1.67.25-2.15-.08-.15-.21-.28-.59-.28-.72,0-1.72.77-2.52,1.39-.23.18-.45.35-.67.5-1.09.79-2.23,1.64-3.17,2.69-.27.29-.5.56-.71.81-.79.92-1.54,1.79-2.76,1.98-.29.03-.51.04-.74.04-3.06,0-6.37-1.86-6.51-5.32-.09-.73-.02-1.91.28-2.73,1.03-3,3.87-8.06,5.91-11.6l.39-.57c.8-1.16,1.44-2.07,1.52-3.59v-.08s.02-.08.02-.08c.03-.14.03-.48.03-.76,0-.95-.02-2.94,1.76-3.06h.08s.08,0,.08,0c.73.07,1.33.61,1.96,1.19.38.35.86.78,1.17.88l.06.02.06.03c.08.04.14.05.2.05.34,0,.87-.54,1.3-.98.65-.67,1.39-1.42,2.39-1.42.6,0,1.16.27,1.66.81l.2.23.04.07c.66,1.14,1.69,1.9,2.9,2.14,12.29,2.39,15.8,17.66,14.98,31.16v.11s-.04.11-.04.11c-.46,1.55-1.69,2.55-3.15,2.55,0,0-.14,0-.2,0Z"/>
  <path class="cls-1" d="M21.19,4.91c.3,0,.6.14.93.49l.1.12c.79,1.34,2.04,2.31,3.56,2.62,11.06,2.15,15.04,15.93,14.18,30.12-.32,1.1-1.14,1.84-2.19,1.84-.05,0-.09,0-.14,0-1.35,0-5.24,0-9.4,0s-8.57,0-11.03,0c-.02,0-.04,0-.06,0-1.44,0-2.28-1.72-1.85-3.07,1.09-4.07,4.96-5.6,6.98-9.6.81-1.36.81-3.88-1.23-3.88h0c-1.3,0-2.68,1.29-3.77,2.08-1.18.85-2.35,1.74-3.33,2.83-1.13,1.21-1.76,2.29-2.88,2.46-.19.02-.39.03-.59.03-2.61,0-5.42-1.52-5.52-4.4-.08-.6-.02-1.64.22-2.29,1.03-3,3.96-8.2,5.84-11.46.94-1.39,1.93-2.55,2.04-4.61.19-.86-.31-2.96.89-3.04.79.08,1.88,1.69,2.93,2.03.22.1.43.15.63.15,1.46,0,2.47-2.4,3.69-2.4M21.19,2.91c-1.42,0-2.4,1-3.11,1.72-.18.18-.45.46-.64.61-.16-.1-.54-.44-.78-.66-.69-.63-1.47-1.34-2.53-1.44l-.17-.02h-.17c-1.8.14-2.71,1.51-2.69,4.08,0,.19,0,.47,0,.57l-.04.16v.13c-.07,1.24-.58,1.97-1.35,3.07-.12.17-.24.34-.36.52l-.04.06-.04.06c-2.06,3.57-4.92,8.67-6,11.78-.37,1-.43,2.29-.33,3.13.19,4.05,4,6.24,7.51,6.24.26,0,.52-.01.77-.03h.06s.06-.02.06-.02c1.59-.25,2.53-1.34,3.36-2.31.21-.24.43-.5.67-.76.9-1,2-1.82,3.04-2.57.22-.16.45-.34.69-.52.41-.31,1.17-.9,1.65-1.11-.01.24-.08.54-.22.77l-.04.06-.03.07c-.76,1.51-1.87,2.64-3.05,3.84-1.63,1.66-3.32,3.37-4.06,6.11-.41,1.35-.15,2.89.69,4.03.75,1.02,1.87,1.6,3.08,1.6h.06c2.47,0,6.89,0,11.03,0h9.35c.06,0,.13,0,.19,0,1.91,0,3.52-1.28,4.11-3.27l.06-.22v-.23c.86-13.92-2.85-29.69-15.78-32.2-.9-.18-1.7-.78-2.22-1.66l-.08-.14-.11-.13-.1-.12-.04-.04-.04-.04c-.87-.93-1.78-1.12-2.39-1.12h0Z"/>
</svg>