<?xml version="1.0" encoding="UTF-8"?>
<svg id="Layer_1" data-name="Layer 1" xmlns="http://www.w3.org/2000/svg" viewBox="0 0 45 45">
  <defs>
    <style>
      .cls-1 {
        fill: #c64694;
      }

      .cls-1, .cls-2 {
        stroke-width: 0px;
      }

      .cls-3 {
        opacity: .99;
      }
    </style>
  </defs>
  <g class="cls-3">
    <path class="cls-2" d="M31.6,40.29c-.23,0-.47,0-.73-.02-.29-.01-.61-.02-.97-.02-.24,0-.5,0-.78.02h-15.94c-1.21-.03-2.38-.55-3.07-1.38-.83-.89-1.19-2.26-.92-3.62.82-4.44,2.86-7.97,6.07-10.49.85-.66.18-1.96-.15-2.49l-.05-.09c-1.58-3.27-.47-7.42,2.57-9.88-.03-.08-.07-.16-.1-.23-.16-.35-.35-.78-.36-1.28-.2-1.44.25-2.94,1.24-4.12,1.03-1.22,2.48-1.94,3.99-1.97h.19c1.48,0,2.91.66,3.92,1.79.99,1.11,1.49,2.56,1.37,3.99.02.61-.21,1.14-.39,1.56-.03.08-.07.17-.11.26,3.04,2.44,4.15,6.59,2.57,9.87-.72,1.23-.81,2.04-.29,2.49,3.28,2.62,5.24,5.92,6.12,10.34.33,1.47,0,2.9-.91,3.89-1.26,1.14-2.18,1.36-3.27,1.36Z"/>
    <path class="cls-1" d="M22.59,5.71c2.47.02,4.54,2.27,4.29,4.77.06.85-.75,1.68-.53,2.32,2.78,1.95,4.22,5.81,2.71,8.97-.67,1.13-1.2,2.67-.05,3.68,2.59,2.06,4.83,4.93,5.79,9.78.25,1.08.08,2.21-.67,3.01-.98.89-1.64,1.04-2.54,1.04-.47,0-1.01-.04-1.7-.04-.26,0-.53,0-.84.02-.75,0-1.61,0-2.54,0-2.84,0-6.29,0-8.97,0-2.3,0-4.04,0-4.37,0-.82-.02-1.77-.38-2.31-1.02-.68-.73-.9-1.78-.71-2.78.89-4.84,3.16-7.9,5.7-9.89,1.28-.98.82-2.63.08-3.8-1.53-3.16-.06-7.01,2.7-8.97.21-.66-.51-1.35-.5-2.06-.39-2.54,1.74-4.97,4.26-5.02h.17M22.59,3.71h0s-.17,0-.17,0c-1.84.04-3.56.89-4.78,2.33-1.16,1.38-1.69,3.14-1.47,4.84.02.45.13.84.26,1.16-2.95,2.79-3.94,7.12-2.27,10.59l.05.1.06.09c.38.61.44,1.06.41,1.16-3.44,2.67-5.6,6.41-6.47,11.11-.32,1.63.12,3.31,1.18,4.47.88,1.01,2.31,1.66,3.76,1.69h4.42s4.36,0,4.36,0h4.61s2.54,0,2.54,0h.11c.26-.02.51-.02.73-.02.35,0,.65.01.93.02.28.01.53.02.77.02,1.29,0,2.45-.26,3.88-1.56l.07-.06.06-.06c1.14-1.23,1.56-2.97,1.16-4.79-.92-4.63-2.97-8.08-6.43-10.87,0-.13.07-.52.45-1.15l.04-.08.04-.08c1.68-3.49.69-7.82-2.27-10.59.16-.41.31-.93.3-1.52.13-1.69-.46-3.39-1.63-4.69-1.21-1.34-2.9-2.11-4.65-2.13h0Z"/>
  </g>
</svg>