<?xml version="1.0" encoding="UTF-8"?>
<svg id="Layer_1" data-name="Layer 1" xmlns="http://www.w3.org/2000/svg" viewBox="0 0 45 45">
  <defs>
    <style>
      .cls-1 {
        fill: #c64694;
      }

      .cls-1, .cls-2 {
        stroke-width: 0px;
      }

      .cls-2 {
        fill: #f9f9f9;
        fill-rule: evenodd;
      }
    </style>
  </defs>
  <path class="cls-2" d="M22.5,41.29c-3.71,0-7.3-.18-10.4-.51-3.39-.25-4.13-1.85-4.15-3.14l.02-.5s0-.07.01-.11c.06-.42.09-.5.13-.64.02-.06.06-.21.09-.26l.36-.73c1.44-2.92,1.87-3.8-.4-6.4-1.73-2.08-2.1-4.82-2.46-7.47-.2-1.52-.4-2.95-.83-4.19-.2-.47-.66-.86-1.21-1.32-.53-.45-1.13-.95-1.55-1.66-.55-.83-.71-1.96-.4-2.99.3-1,1-1.81,1.93-2.21.43-.21.95-.33,1.5-.33,1.71,0,3.26,1.17,3.61,2.73.24.87.12,1.78.03,2.58-.04.35-.09.69-.09,1.03,0,.04,0,.07,0,.1-.07.52.89,1.98,1.52,2.94.29.44.58.89.85,1.33.17.24.49.74.83,1.29.03.06.07.12.11.18,0-.4-.01-.79.01-1.15-.06-.82-.02-1.65.01-2.45.06-1.48.12-2.88-.39-4.04-.15-.23-.32-.47-.5-.71-.68-.92-1.52-2.06-1.41-3.53.07-1.82,1.71-3.39,3.59-3.39.09,0,.19,0,.28.01,1.39.2,2.34.77,2.89,1.7.72,1.23.64,2.93-.23,5.21-.17.79.14,1.55.55,2.5.16.39.33.78.47,1.19.3.67.63,1.56.99,2.51.19.52.39,1.04.59,1.54.14-.7.3-1.45.45-2.2.48-2.3.97-4.69,1.19-6.2.06-.53-.27-1.12-.65-1.79-.52-.92-1.16-2.06-.9-3.52.22-1.27,1.16-2.36,2.38-2.76.34-.13.75-.21,1.17-.21,1.06,0,2.12.5,2.83,1.34.68.8.98,1.82.82,2.81-.13.88-.54,1.66-.9,2.35-.53,1.01-.84,1.67-.59,2.45.01.04.02.08.03.12.25,1.27.69,3.47,1.1,5.52l.43,2.15c.45-1.11,2.12-5.19,2.12-5.19l.18-.45c.27-.67.48-1.2.45-1.76-.08-.3-.18-.62-.29-.95-.56-1.69-1.49-4.53,1.35-5.97.48-.25,1.03-.39,1.6-.39,1.79,0,3.35,1.27,3.63,2.96.34,1.61-.55,2.86-1.27,3.86-.31.43-.6.84-.76,1.22-.26,1.06-.23,2.22-.19,3.45.02.7.04,1.42,0,2.15.02.44.01,1.03,0,1.63.82-1.27,1.71-2.68,2.45-3.83l.11-.17c.55-.86.82-1.42.75-2.08-.79-4.46,1.08-5.78,2.78-6.09l.2-.03c.18-.03.35-.04.51-.04,1.73,0,3.29,1.3,3.57,2.95.47,2.1-1.1,3.48-2.25,4.49-.21.18-.42.36-.6.55-.79,1.14-1.03,3.03-1.28,5.02-.32,2.51-.65,5.11-2.16,6.88-2.19,2.58-2.32,3.59-.89,6.78,1.07,2.89.04,4.11-.67,4.59-.78.52-1.78.63-2.57.72-3.14.34-6.73.52-10.44.52Z"/>
  <path class="cls-1" d="M22.46,4.71c1.51,0,2.91,1.41,2.66,2.99-.27,1.86-2.11,3.27-1.45,5.26.38,1.98,1.25,6.21,1.73,8.62.22.96.3,1.75.51,1.75.13,0,.3-.29.59-1.02.81-1.95,1.91-4.65,2.74-6.68.37-.96.79-1.76.69-2.75-.46-1.86-2.01-4.57.53-5.86.36-.19.75-.28,1.14-.28,1.22,0,2.43.86,2.65,2.13.39,1.86-1.41,3.12-1.99,4.61-.47,1.86-.14,3.88-.24,5.86.05,1.41-.12,3.41.09,4.43.02.06.06.09.1.09.12,0,.31-.24.6-.67,1.06-1.63,2.53-3.93,3.61-5.63.56-.87,1.01-1.69.91-2.72-.31-1.78-.5-4.56,1.97-5.01l.17-.03c.12-.02.24-.03.35-.03,1.24,0,2.39.93,2.58,2.11.43,1.93-1.46,3.06-2.64,4.22-2.06,2.83-.95,8.98-3.44,11.91-2.47,2.91-2.59,4.38-1.04,7.84.39,1.05.73,2.64-.32,3.36-.59.39-1.43.48-2.17.56-3.11.34-6.7.51-10.28.51s-7.17-.17-10.29-.51c-1.4-.1-3.24-.48-3.26-2.16,0-.11.01-.33.02-.44.07-.43.08-.41.13-.62,1.7-3.51,2.73-4.88-.19-8.22-2.46-2.95-1.86-7.8-3.09-11.33-.57-1.37-2.1-1.92-2.85-3.17-.82-1.24-.39-3.13,1.07-3.77.35-.17.72-.25,1.1-.25,1.18,0,2.37.78,2.63,1.95.29,1.1-.07,2.27-.09,3.37-.15,1.17,1.44,3.14,2.5,4.91.63.91,2.31,3.82,2.61,3.82,0,0,.01,0,.02,0,.38-.72.07-2.75.17-4-.18-2.32.46-4.85-.49-6.96-.66-1.08-1.91-2.22-1.8-3.7.05-1.35,1.25-2.46,2.59-2.46.07,0,.13,0,.2,0,3.26.47,2.62,3.48,1.79,5.62-.38,1.53.53,2.83,1.02,4.3.85,1.93,1.81,5.06,2.76,6.66.01,0,.02,0,.04,0,.14,0,.24-.43.4-1.18.56-2.98,1.6-7.57,1.96-10.02.2-1.87-1.92-3.18-1.55-5.28.16-.91.83-1.7,1.71-1.99.28-.11.57-.16.85-.16M22.46,2.71h0c-.52,0-1.03.09-1.52.27-1.56.53-2.74,1.91-3.01,3.54-.32,1.8.45,3.17,1.01,4.17.26.47.53.95.52,1.21-.18,1.24-.54,3.06-.93,4.93-.12-.31-.25-.61-.37-.89-.15-.42-.31-.8-.46-1.17-.36-.86-.57-1.39-.5-1.83.96-2.54,1-4.49.13-5.99-.49-.83-1.5-1.89-3.55-2.18-.04,0-.08-.01-.12-.01-.12-.01-.24-.02-.36-.02-2.43,0-4.47,1.95-4.59,4.35,0,.09,0,.19-.01.28-.87-.95-2.16-1.55-3.55-1.55-.68,0-1.35.15-1.94.44-1.17.53-2.06,1.55-2.44,2.82-.39,1.31-.2,2.71.52,3.82.51.83,1.19,1.41,1.75,1.87.42.36.79.67.93.96.38,1.12.56,2.48.76,3.92.36,2.66.76,5.68,2.67,7.96,1.86,2.13,1.71,2.43.29,5.34-.11.23-.23.48-.36.73-.05.11-.1.23-.13.35l-.02.07c-.06.21-.1.37-.16.77-.01.07-.02.14-.02.21v.22s-.02.22-.02.22c0,.04,0,.08,0,.12.02,1.13.54,3.78,5.08,4.13,3.12.34,6.74.51,10.47.51s7.38-.18,10.5-.52c0,0,.05,0,.05,0,.9-.1,2.03-.23,3.01-.88.78-.53,2.42-2.12,1.09-5.72-.02-.04-.03-.09-.05-.13-1.27-2.82-1.18-3.46.74-5.72,1.7-2,2.06-4.87,2.39-7.4.22-1.74.45-3.54,1.06-4.5.16-.15.32-.29.49-.44,1.18-1.03,3.15-2.76,2.57-5.46-.38-2.13-2.33-3.73-4.55-3.73-.22,0-.43.02-.65.05l-.2.03c-.71.13-1.83.49-2.67,1.49,0-.27-.03-.56-.09-.85-.38-2.14-2.36-3.75-4.61-3.75-.73,0-1.44.18-2.07.51-3.58,1.82-2.39,5.43-1.83,7.16.09.28.18.55.25.79,0,.3-.15.66-.38,1.23-.06.16-.13.32-.19.48l-.76,1.85c-.03.08-.07.16-.1.24-.34-1.7-.68-3.38-.88-4.42-.02-.08-.04-.16-.06-.24-.12-.35.02-.71.53-1.67.4-.76.85-1.61,1-2.68.2-1.25-.18-2.57-1.05-3.59-.9-1.06-2.24-1.69-3.59-1.69h0ZM34.14,14.11c.13-.27.37-.61.62-.96.12-.17.25-.35.38-.54-.04.72.01,1.54.17,2.49.01.31-.14.66-.61,1.39l-.13.21c-.18.29-.38.59-.57.9,0-.13,0-.25,0-.38-.03-1.12-.06-2.19.15-3.1h0ZM9.67,15.29s0-.07,0-.1c0-.27.05-.59.09-.93.06-.47.12-1.01.12-1.59.14.21.29.4.42.58.16.21.3.41.42.58.38.94.33,2.2.28,3.53,0,.08,0,.16,0,.23-.47-.72-1.22-1.86-1.32-2.32h0Z"/>
</svg>