<?xml version="1.0" encoding="UTF-8"?>
<svg id="Layer_1" data-name="Layer 1" xmlns="http://www.w3.org/2000/svg" viewBox="0 0 45 45">
  <defs>
    <style>
      .cls-1 {
        fill: #c64694;
      }

      .cls-1, .cls-2 {
        stroke-width: 0px;
      }

      .cls-2 {
        fill: #f9f9f9;
      }
    </style>
  </defs>
  <path class="cls-2" d="M8.43,40c-.98,0-1.78-.8-1.78-1.78v-1.83c0-.67.23-1.33.66-1.85l.53-.65q4.51-5.56,4.37-11.86c-.02-.8-.04-1.69-.05-2.7-.01-2.49-.81-3.88-1.66-5.34-1.02-1.77-2.07-3.59-1.76-7.05.1-1.08,1.02-1.93,2.1-1.93h2.23c.56,0,1.11.23,1.5.63.39.4.6.92.6,1.47,0,.67.13.88.19.94.2.2.94.2,1.18.2.27,0,.56,0,.86-.02.36-.01.75-.02,1.15-.02h.15c.12-.18.08-1.07.07-1.45v-.2c-.02-.41.13-.8.42-1.1.28-.29.68-.46,1.09-.46h4.41c.43,0,.83.18,1.12.49.28.31.43.73.39,1.14-.09,1.04.1,1.33.16,1.4.19.21.94.21,1.19.21.27,0,.55,0,.86-.02.36-.01.75-.02,1.15-.02h.15s.1-.22.08-1.06c-.01-.57.2-1.11.6-1.52.4-.41.93-.63,1.5-.63h2.3c1.08,0,2,.84,2.1,1.92.31,3.44-.74,5.27-1.76,7.05-.85,1.48-1.65,2.87-1.66,5.34-.01,1.03-.04,1.94-.05,2.74q-.14,6.26,4.27,11.7l.51.63c.5.62.78,1.4.78,2.21v1.63c0,.98-.8,1.78-1.78,1.78H8.43Z"/>
  <path class="cls-1" d="M31.87,6h2.3c.57,0,1.05.44,1.1,1.01.54,5.96-3.4,6.56-3.43,12.29-.14,9.73-.81,8.6,4.94,15.7.36.45.56,1,.56,1.58v1.63c0,.43-.35.78-.78.78H8.43c-.43,0-.78-.35-.78-.78v-1.83c0-.44.16-.88.43-1.22,5.88-7.25,5.21-6.11,5.06-15.86-.03-5.77-3.96-6.29-3.43-12.29.05-.57.53-1.01,1.1-1.01h2.23c.6,0,1.11.48,1.1,1.08-.02,1.89.91,2.16,2.37,2.16.59,0,1.27-.04,2-.04.01,0,.03,0,.04,0,.01,0,.02,0,.04,0,1.31,0,1.17-1.6,1.14-2.67,0-.29.22-.53.51-.53,1.03,0,3.33,0,4.41,0,.3,0,.54.25.52.55-.21,2.37.75,2.69,2.34,2.69.59,0,1.27-.04,2-.04.01,0,.03,0,.04,0,.01,0,.02,0,.04,0,1.08,0,1.18-1.09,1.16-2.08-.01-.62.48-1.13,1.1-1.13M31.87,4v2-2c-.84,0-1.63.33-2.21.93-.59.6-.9,1.39-.89,2.23,0,.02,0,.03,0,.05-.14,0-.28,0-.42.01-.29,0-.57.02-.83.02-.15,0-.28,0-.37,0,0-.12,0-.29.02-.51.06-.69-.18-1.39-.65-1.9-.48-.52-1.16-.82-1.86-.82h-4.41c-.68,0-1.34.28-1.81.76-.47.48-.73,1.15-.7,1.83v.2c.01.11.02.27.02.42-.14,0-.28,0-.41.01-.29,0-.57.02-.83.02-.15,0-.27,0-.37,0,0-.04,0-.08,0-.13,0-.82-.31-1.59-.89-2.18-.58-.59-1.39-.93-2.22-.93h-2.23c-1.59,0-2.95,1.25-3.1,2.84-.34,3.77.85,5.83,1.89,7.64.81,1.41,1.51,2.62,1.52,4.84.02,1.03.04,1.92.05,2.72.07,3.08.11,4.62-.34,5.83-.46,1.25-1.58,2.63-3.81,5.38l-.53.65c-.57.7-.88,1.58-.88,2.48v1.83c0,1.53,1.25,2.78,2.78,2.78h28.14c1.53,0,2.78-1.25,2.78-2.78v-1.63c0-1.03-.36-2.04-1-2.83l-.51-.63c-2.18-2.69-3.27-4.03-3.71-5.26-.43-1.19-.4-2.73-.33-5.79.02-.81.04-1.71.05-2.74.01-2.22.71-3.45,1.53-4.86,1.05-1.82,2.23-3.89,1.89-7.64-.14-1.59-1.5-2.83-3.1-2.83h-2.3Z"/>
</svg>