<?xml version="1.0" encoding="UTF-8"?>
<svg id="Layer_1" data-name="Layer 1" xmlns="http://www.w3.org/2000/svg" viewBox="0 0 45 45">
  <defs>
    <style>
      .cls-1 {
        fill: #870037;
        fill-rule: evenodd;
        stroke-width: 0px;
      }
    </style>
  </defs>
  <path class="cls-1" d="M36.97,39.5c-4.01-.64-9.2.24-13.42-.62-.93-.19-1.88-.08-2.79.1-3.72.7-9.1-.08-12.61.49-1.09.1-2.92.84-3.7-.19-.36-1.12,1.25-1.96,2.19-2.25,1.73-.58,3.46-.56,5.34-.57,1.4-.05,2.73-.22,3.09-.92.35-.69-.32-1.42-.68-1.98-1.22-1.72-.07-4.3,1.26-5.78.22-.27.61-.6.53-.95-6.72-4.28-3.09-12.58,2.94-15.77,1.34-.72,1.36-1.14.85-2.6-.5-1.79.87-3.3,2.58-3.27,1.61-.09,2.93,1.67,2.49,3.19-.11.57-.5,1.17-.25,1.74.33.7,1.23.96,1.8,1.44,1.08.68,1.15,2.05.18,2.91-1.38,1.5-3.26,2.21-4.48,3.88-1.85,2.31-1.36,3.17,1.43,1.99,2.48-1.15,4.47-2.29,6.32-4.34.24-.21.56-.45.86-.18,2.68,3.69,1.69,8.65-1.4,10.32-.45.25-.98.66-.55,1.17,1.21,1.32,2.44,3.31,2.12,5.19-.36,1.43-2.62,3.07.06,3.73,2.22.44,4.84.03,6.62.65,3.84,1.39,3.99,3.75-.63,2.65l-.15-.03Z"/>
</svg>