<?xml version="1.0" encoding="UTF-8"?>
<svg id="Layer_1" data-name="Layer 1" xmlns="http://www.w3.org/2000/svg" viewBox="0 0 45 45">
  <defs>
    <style>
      .cls-1 {
        fill: #870037;
        fill-rule: evenodd;
        stroke-width: 0px;
      }
    </style>
  </defs>
  <path class="cls-1" d="M40.1,19.48c-2.04-3.63-6.35-4.68-10.02-3.39-2.01.76-3.63-.31-4.26-2.14-.47-1.43-2.26-2.05-2.29-3.64.02-.58-.09-1.37.09-1.88.3-.72,2.18-.02,2.42-1.23.17-1.39-1.64-.9-2.26-1.41-.43-.46-.14-1.57-.5-2.08-.32-.6-1.2-.6-1.52,0-.36.51-.07,1.63-.5,2.08-.58.49-1.91.05-2.22.96-.24.69.32,1.21,1.1,1.27.59.07,1.11.02,1.28.42.17.84.24,2.3-.24,3-.28.4-.78.8-1.17,1.27-1.08,1.47-1.63,3.51-3.86,3.65-.72.08-1.46-.1-2.17-.3-4.33-1.57-8.83.63-9.67,5.12-1.13,5.32,4.95,8.71,5.98,9.37.2,1.36.01,3.98.08,5.42-.1,1.63.21,3,1.68,3.76,5.44,2.61,13.5,2.66,19.15.32,3.17-1.04,2.23-4.41,2.36-7.11,0-.43,0-.81,0-1.09,0-.82.01-.74.37-.95,1.78-.81,9.06-5.99,6.28-11.22l-.1-.2Z"/>
</svg>