<?xml version="1.0" encoding="UTF-8"?>
<svg id="Layer_1" data-name="Layer 1" xmlns="http://www.w3.org/2000/svg" viewBox="0 0 45 45">
  <defs>
    <style>
      .cls-1 {
        opacity: .99;
      }

      .cls-2 {
        fill: #870037;
        stroke-width: 0px;
      }
    </style>
  </defs>
  <g class="cls-1">
    <path class="cls-2" d="M22.41,5.72c-2.51.05-4.65,2.48-4.26,5.02-.02.71.7,1.4.5,2.06-2.77,1.96-4.23,5.81-2.7,8.97.73,1.18,1.19,2.82-.08,3.8-2.54,1.99-4.81,5.05-5.7,9.89-.2,1,.03,2.05.71,2.78.54.64,1.49,1,2.31,1.02.85,0,10.86,0,15.88,0,2.65-.14,3.38.51,5.08-1.02.74-.8.91-1.93.67-3.01-.96-4.85-3.21-7.72-5.79-9.78-1.16-1.01-.63-2.55.05-3.68,1.52-3.15.07-7.02-2.71-8.97-.22-.64.59-1.47.53-2.32.25-2.5-1.82-4.75-4.29-4.77h-.17Z"/>
  </g>
</svg>