<?xml version="1.0" encoding="UTF-8"?>
<svg id="Layer_1" data-name="Layer 1" xmlns="http://www.w3.org/2000/svg" viewBox="0 0 45 45">
  <defs>
    <style>
      .cls-1 {
        fill: #870037;
        fill-rule: evenodd;
        stroke-width: 0px;
      }
    </style>
  </defs>
  <path class="cls-1" d="M39.27,9.84c-2.47.45-2.28,3.23-1.97,5.01.1,1.02-.35,1.85-.91,2.72-1.08,1.7-2.55,4-3.61,5.63-.39.59-.6.81-.7.58-.21-1.03-.04-3.02-.09-4.43.1-1.98-.24-4,.24-5.86.59-1.49,2.39-2.75,1.99-4.61-.28-1.67-2.3-2.63-3.79-1.85-2.54,1.29-.99,4-.53,5.86.1.99-.32,1.79-.69,2.75-.83,2.03-1.93,4.73-2.74,6.68-.77,1.93-.74.82-1.1-.73-.48-2.41-1.34-6.64-1.73-8.62-.66-2,1.18-3.4,1.45-5.26.31-1.88-1.73-3.51-3.51-2.84-.88.29-1.56,1.08-1.71,1.99-.38,2.1,1.75,3.41,1.55,5.28-.35,2.45-1.39,7.04-1.96,10.02-.17.82-.28,1.26-.43,1.18-.95-1.6-1.91-4.74-2.76-6.66-.5-1.47-1.41-2.77-1.02-4.3.83-2.14,1.47-5.15-1.79-5.62-1.41-.12-2.73,1.04-2.79,2.45-.11,1.47,1.14,2.62,1.8,3.7.96,2.1.32,4.64.49,6.96-.1,1.25.21,3.29-.17,4-.24.15-1.99-2.88-2.64-3.81-1.07-1.76-2.65-3.74-2.5-4.91.02-1.1.38-2.27.09-3.37-.34-1.54-2.31-2.4-3.73-1.69-1.46.63-1.89,2.52-1.07,3.77.75,1.25,2.28,1.8,2.85,3.17,1.23,3.53.63,8.38,3.09,11.33,2.92,3.34,1.89,4.71.19,8.22-.06.21-.07.18-.13.62l-.02.44c.02,1.68,1.86,2.06,3.26,2.16,6.22.68,14.35.68,20.57,0,.75-.08,1.59-.17,2.17-.56,1.05-.71.71-2.31.32-3.36-1.55-3.46-1.44-4.93,1.04-7.84,2.49-2.93,1.38-9.08,3.44-11.91,1.18-1.15,3.07-2.29,2.64-4.22-.21-1.29-1.57-2.29-2.94-2.09l-.17.03Z"/>
</svg>