<?xml version="1.0" encoding="UTF-8"?>
<svg id="Layer_1" data-name="Layer 1" xmlns="http://www.w3.org/2000/svg" viewBox="0 0 45 45">
  <defs>
    <style>
      .cls-1 {
        fill: #3abef9;
        stroke-width: 0px;
      }
    </style>
  </defs>
  <path class="cls-1" d="M22.12,5.4c-1.87-1.99-3.05,2.8-5.25,1.76-1.05-.33-2.13-1.95-2.93-2.03-1.19.09-.69,2.18-.89,3.04-.11,2.05-1.1,3.21-2.04,4.61-1.88,3.26-4.82,8.46-5.84,11.46-.24.65-.3,1.69-.22,2.29.1,3.1,3.35,4.63,6.1,4.38,1.12-.17,1.75-1.26,2.88-2.46.98-1.09,2.15-1.97,3.33-2.83,1.09-.79,2.47-2.07,3.77-2.08,2.04,0,2.05,2.52,1.23,3.88-2.01,4-5.89,5.53-6.98,9.6-.43,1.37.43,3.12,1.91,3.07,4.95.01,17.75,0,20.43,0,1.11.07,1.99-.69,2.33-1.83.86-14.18-3.12-27.97-14.18-30.12-1.52-.31-2.78-1.27-3.56-2.62l-.1-.12Z"/>
</svg>