<?xml version="1.0" encoding="UTF-8"?>
<svg id="Layer_1" data-name="Layer 1" xmlns="http://www.w3.org/2000/svg" viewBox="0 0 45 45">
  <defs>
    <style>
      .cls-1 {
        fill: #3abef9;
        stroke-width: 0px;
      }
    </style>
  </defs>
  <path class="cls-1" d="M36.79,35.01c.36.45.56,1,.56,1.58v.86s0,.77,0,.77c0,.43-.35.78-.78.78H8.43c-.43,0-.78-.35-.78-.78v-1.83c0-.44.16-.88.43-1.22,5.88-7.25,5.21-6.11,5.06-15.86-.03-5.77-3.96-6.29-3.43-12.29.05-.57.53-1.01,1.1-1.01h2.23c.6,0,1.11.48,1.1,1.08-.03,2.66,1.83,2.11,4.41,2.12,1.35.03,1.21-1.59,1.18-2.67,0-.29.22-.53.51-.53,1.03,0,3.33,0,4.41,0,.3,0,.54.25.52.55-.29,3.27,1.64,2.64,4.39,2.65,1.12.02,1.22-1.08,1.2-2.07-.01-.62.48-1.13,1.1-1.13h2.3c.57,0,1.05.44,1.1,1.01.54,5.96-3.4,6.56-3.43,12.29-.14,9.73-.81,8.6,4.94,15.7Z"/>
</svg>