<?xml version="1.0" encoding="UTF-8"?>
<svg id="Layer_1" data-name="Layer 1" xmlns="http://www.w3.org/2000/svg" viewBox="0 0 45 45">
  <defs>
    <style>
      .cls-1 {
        fill-rule: evenodd;
      }

      .cls-1, .cls-2 {
        stroke-width: 0px;
      }

      .cls-2 {
        fill: #f9f9f9;
      }
    </style>
  </defs>
  <path class="cls-1" d="M5.77,40.82c-.94,0-1.65-.32-2.12-.94l-.1-.14-.05-.16c-.17-.53-.12-1.07.14-1.58.62-1.19,2.22-1.78,2.7-1.94,1.8-.6,3.55-.61,5.4-.62h.24c1.83-.06,2.18-.35,2.22-.4-.03-.07-.29-.45-.44-.65-.07-.11-.15-.21-.21-.31-1.49-2.09-.36-5.08,1.33-6.96-2.25-1.72-3.42-4.1-3.31-6.78.16-3.94,3.01-8.03,7.08-10.19.52-.28.62-.41.63-.43,0-.06-.02-.29-.26-.96-.33-1.16-.12-2.29.54-3.17.68-.89,1.77-1.43,2.93-1.43h.17c1.04,0,2.03.51,2.71,1.41.68.9.92,2.05.63,3.06-.02.13-.09.34-.16.55-.06.17-.15.44-.13.52.07.15.39.34.71.52.24.14.51.3.76.5.74.48,1.2,1.24,1.26,2.08.07.87-.29,1.72-.98,2.35-.67.72-1.42,1.26-2.15,1.78-.84.6-1.64,1.17-2.22,1.97-.26.32-.44.58-.57.79.21-.07.48-.16.81-.3,2.39-1.1,4.24-2.18,5.96-4.08l.08-.08c.17-.15.62-.55,1.24-.55.36,0,.69.13.96.39l.07.07.06.08c1.54,2.12,2.09,4.75,1.53,7.22-.46,2.01-1.63,3.67-3.23,4.55.92,1.09,2.44,3.31,2.04,5.67-.16.64-.48,1.16-.76,1.62-.14.23-.36.59-.44.8.08.04.24.11.51.18.88.17,1.92.2,2.92.22,1.37.03,2.66.06,3.78.45,2.42.88,3.73,2.15,3.51,3.42-.08.44-.47,1.46-2.44,1.46-.64,0-1.4-.1-2.26-.31l-.1-.02c-1.31-.21-2.81-.24-3.96-.24-.66,0-1.33.01-2.01.02-.69.01-1.39.02-2.08.02-1.64,0-3.56-.05-5.39-.42-.27-.05-.54-.08-.84-.08-.45,0-.94.06-1.55.18-1.56.29-3.33.33-4.69.33-.74,0-1.49-.01-2.23-.02-.72-.01-1.44-.02-2.14-.02-1.58,0-2.69.07-3.6.21-.3.03-.56.09-.84.14-.52.1-1.11.22-1.69.22Z"/>
  <path class="cls-2" d="M22.67,5.18c1.56,0,2.8,1.71,2.38,3.2-.11.57-.5,1.17-.25,1.74.33.7,1.23.96,1.8,1.44,1.08.68,1.15,2.05.18,2.91-1.38,1.5-3.26,2.21-4.48,3.88-1.29,1.61-1.44,2.52-.46,2.52.42,0,1.06-.17,1.9-.52,2.48-1.15,4.47-2.29,6.32-4.34.16-.14.37-.3.57-.3.1,0,.19.03.28.12,2.68,3.69,1.69,8.65-1.4,10.32-.45.25-.98.66-.55,1.17,1.21,1.32,2.44,3.31,2.12,5.19-.36,1.43-2.62,3.07.06,3.73,2.22.44,4.84.03,6.62.65,3.15,1.14,3.81,2.93,1.4,2.93-.53,0-1.2-.09-2.03-.28l-.15-.03c-1.28-.21-2.69-.26-4.14-.26-1.34,0-2.72.04-4.09.04-1.79,0-3.57-.07-5.19-.4-.35-.07-.7-.1-1.04-.1-.59,0-1.17.08-1.75.2-1.34.25-2.89.31-4.49.31-1.45,0-2.95-.05-4.36-.05-1.36,0-2.65.05-3.76.22-.66.06-1.58.35-2.38.35-.53,0-1.01-.13-1.32-.54-.36-1.12,1.25-1.96,2.19-2.25,1.73-.58,3.46-.56,5.34-.57,1.4-.05,2.73-.22,3.09-.92.35-.69-.32-1.42-.68-1.98-1.22-1.72-.07-4.3,1.26-5.78.22-.27.61-.6.53-.95-6.72-4.28-3.09-12.58,2.94-15.77,1.34-.72,1.36-1.14.85-2.6-.5-1.77.84-3.27,2.53-3.27.02,0,.04,0,.06,0,.04,0,.08,0,.12,0M22.67,3.18c-.05,0-.1,0-.16,0h-.02c-1.47,0-2.86.68-3.73,1.82-.85,1.13-1.12,2.58-.73,3.98l.02.06.02.06c.02.07.05.13.07.19-4.36,2.32-7.4,6.74-7.58,11.01-.11,2.69.92,5.1,2.92,6.96-1.49,2.08-2.28,4.91-.92,7.15-.18.01-.39.03-.63.03h-.21c-1.85.01-3.76.02-5.72.67-.71.23-2.5.93-3.27,2.42-.38.74-.45,1.57-.2,2.34l.1.32.21.27c.46.61,1.34,1.34,2.92,1.34.68,0,1.35-.13,1.89-.24.26-.05.52-.1.68-.12h.07s.07-.02.07-.02c.85-.14,1.91-.2,3.44-.2.69,0,1.4.01,2.12.02.75.01,1.5.02,2.24.02,1.41,0,3.23-.04,4.86-.34.57-.12,1-.17,1.38-.17.24,0,.45.02.65.06,1.92.39,3.91.44,5.59.44.7,0,1.4-.01,2.1-.02.67-.01,1.34-.02,1.99-.02,1.11,0,2.53.03,3.8.23h.08c.92.23,1.74.34,2.44.34,2.8,0,3.33-1.75,3.42-2.29.31-1.78-1.24-3.47-4.14-4.52-1.29-.45-2.73-.48-4.11-.52-.64-.02-1.3-.03-1.92-.09.24-.42.48-.88.61-1.41l.02-.07v-.07c.39-2.19-.62-4.23-1.57-5.6,1.35-1.08,2.34-2.69,2.77-4.56.63-2.75,0-5.68-1.7-8.03l-.11-.16-.14-.13c-.45-.42-1.04-.65-1.64-.65-.53,0-.97.17-1.31.37.12-.43.17-.87.13-1.32-.09-1.13-.7-2.15-1.67-2.81-.3-.23-.6-.41-.85-.55-.02-.01-.05-.03-.07-.04.05-.15.1-.31.14-.49.34-1.29.04-2.73-.81-3.86-.87-1.15-2.15-1.81-3.51-1.81h0ZM31.33,34.2h0Z"/>
</svg>