<?xml version="1.0" encoding="UTF-8"?>
<svg id="Layer_1" data-name="Layer 1" xmlns="http://www.w3.org/2000/svg" viewBox="0 0 45 45">
  <defs>
    <style>
      .cls-1 {
        fill: #2d2d2d;
      }

      .cls-1, .cls-2 {
        stroke-width: 0px;
      }

      .cls-2 {
        fill: #f9f9f9;
        fill-rule: evenodd;
      }
    </style>
  </defs>
  <path class="cls-2" d="M5.77,38.82c-.11,0-.2,0-.27-.02.21-.24.73-.6,1.44-.82,1.52-.5,3.04-.51,4.81-.52h.24c1.71-.06,3.36-.27,3.98-1.46.57-1.12-.14-2.13-.56-2.74-.06-.09-.12-.17-.17-.25-.91-1.28.14-3.43,1.16-4.56l.14-.17c.28-.31.79-.89.62-1.68-.06-.26-.21-.48-.44-.63-2.15-1.37-3.24-3.29-3.15-5.54.13-3.2,2.6-6.69,6.02-8.5,1.91-1.02,1.95-2.04,1.32-3.82-.12-.44-.04-.92.25-1.3.3-.4.8-.64,1.34-.64,0,0,.12,0,.12,0,.47,0,.88.23,1.17.62.31.4.42.89.3,1.31-.04.2-.09.33-.13.46-.16.48-.4,1.19-.07,1.95.36.77,1.01,1.15,1.53,1.46.21.12.41.24.54.35.04.03.07.06.11.08.24.15.37.35.39.58.02.25-.1.52-.34.73-.03.02-.05.05-.08.07-.54.59-1.19,1.05-1.88,1.55-.93.67-1.9,1.36-2.67,2.42-1.17,1.45-1.53,2.47-1.15,3.27.12.25.51.83,1.49.83.58,0,1.32-.2,2.29-.6,2.47-1.14,4.5-2.31,6.37-4.26.9,1.53,1.2,3.32.81,5.01-.33,1.47-1.16,2.65-2.27,3.25-.71.39-1.1.84-1.21,1.4-.08.45.04.91.37,1.29.55.6,2.21,2.57,1.9,4.38-.05.19-.28.56-.49.91-.45.74-1.02,1.66-.62,2.61.4.97,1.55,1.25,1.92,1.35,1.13.23,2.26.25,3.35.28,1.21.03,2.35.06,3.17.34.97.35,1.55.72,1.87.99-.04,0-.09,0-.14,0-.47,0-1.09-.09-1.8-.25l-.2-.04c-1.51-.24-3.1-.27-4.33-.27-.67,0-1.35.01-2.04.02-.68.01-1.37.02-2.05.02-1.45,0-3.33-.04-5-.38-.39-.08-.81-.12-1.24-.12-.58,0-1.2.07-1.95.22-1.37.26-3.02.29-4.29.29-.73,0-1.46-.01-2.2-.02s-1.46-.02-2.17-.02c-1.7,0-2.9.07-3.92.24-.22.02-.56.08-.92.16-.45.09-.91.18-1.3.18Z"/>
  <path class="cls-1" d="M22.67,7.18c.07,0,.21.08.32.22.12.16.16.34.14.43-.01.05-.03.11-.04.15-.02.09-.05.17-.08.26-.18.54-.52,1.56-.04,2.67,0,.02.01.03.02.05.48,1.03,1.35,1.54,1.93,1.87.16.09.33.2.41.26,0,0,0,0,0,0,0,0,0,0-.01.01-.47.51-1.08.95-1.73,1.41-.94.67-2.01,1.44-2.87,2.6-.98,1.23-1.99,2.82-1.27,4.33.42.88,1.31,1.4,2.39,1.4.72,0,1.57-.22,2.67-.68.02,0,.04-.02.06-.03,2.1-.97,3.91-1.97,5.59-3.45.33,1,.39,2.07.16,3.09-.27,1.19-.92,2.13-1.78,2.6-.97.53-1.55,1.23-1.71,2.09-.14.75.07,1.5.59,2.12.02.02.04.04.06.07,1.09,1.19,1.72,2.51,1.63,3.4-.07.16-.25.46-.37.66-.51.83-1.28,2.09-.7,3.51.17.41.42.76.76,1.05-.02,0-.04,0-.06,0-1.4,0-3.21-.04-4.8-.36-.46-.09-.94-.14-1.44-.14-.65,0-1.33.08-2.12.23-1.3.24-2.89.28-4.12.28-.02,0-.05,0-.07,0,.26-.23.49-.51.66-.85.85-1.65-.19-3.13-.64-3.77-.05-.08-.11-.15-.15-.22-.01-.02-.03-.04-.04-.07-.43-.6.1-2.17,1.11-3.28.02-.03.05-.05.07-.08.02-.03.05-.06.08-.09.31-.35,1.13-1.27.85-2.56-.12-.52-.43-.97-.88-1.25-1.86-1.18-2.76-2.75-2.69-4.66.11-2.81,2.42-6.03,5.49-7.66,2.72-1.45,2.39-3.31,1.82-4.95-.04-.18-.02-.32.07-.44.11-.15.32-.24.56-.24h0s.03,0,.04,0c.04,0,.07,0,.11,0h0M22.67,5.18s-.08,0-.12,0c-.02,0-.04,0-.06,0-1.69,0-3.02,1.49-2.53,3.27.51,1.46.49,1.89-.85,2.6-6.04,3.19-9.66,11.49-2.94,15.77.08.35-.31.68-.53.95-1.33,1.47-2.48,4.06-1.26,5.78.37.57,1.04,1.3.68,1.98-.37.7-1.7.88-3.09.92-1.89.01-3.61,0-5.34.57-.94.3-2.55,1.14-2.19,2.25.31.41.79.54,1.32.54.8,0,1.72-.29,2.38-.35,1.1-.18,2.39-.22,3.76-.22,1.41,0,2.91.05,4.36.05,1.6,0,3.16-.06,4.49-.31.58-.12,1.16-.2,1.75-.2.35,0,.7.03,1.04.1,1.63.33,3.4.4,5.19.4,1.37,0,2.75-.04,4.09-.04,1.45,0,2.86.05,4.14.26l.15.03c.83.2,1.5.28,2.03.28,2.42,0,1.75-1.79-1.4-2.93-1.78-.62-4.4-.21-6.62-.65-2.68-.66-.42-2.31-.06-3.73.32-1.88-.91-3.87-2.12-5.19-.43-.51.1-.92.55-1.17,3.09-1.67,4.08-6.64,1.4-10.32-.09-.09-.19-.12-.28-.12-.21,0-.41.16-.57.3-1.85,2.04-3.84,3.19-6.32,4.34-.84.35-1.48.52-1.9.52-.98,0-.83-.9.46-2.52,1.21-1.67,3.09-2.38,4.48-3.88.98-.86.9-2.23-.18-2.91-.58-.48-1.47-.74-1.8-1.44-.25-.57.14-1.18.25-1.74.42-1.49-.82-3.2-2.38-3.2h0Z"/>
</svg>