<?xml version="1.0" encoding="UTF-8"?>
<svg id="Layer_1" data-name="Layer 1" xmlns="http://www.w3.org/2000/svg" viewBox="0 0 45 45">
  <defs>
    <style>
      .cls-1 {
        fill: #2d2d2d;
      }

      .cls-1, .cls-2 {
        stroke-width: 0px;
      }

      .cls-2 {
        fill: #f9f9f9;
        fill-rule: evenodd;
      }
    </style>
  </defs>
  <path class="cls-2" d="M21.93,40.75c-3.51,0-6.87-.68-9.45-1.92-.74-.38-1.22-1.02-1.12-2.8,0-.03,0-.07,0-.1-.02-.54,0-1.25,0-1.99.02-1.28.05-2.61-.09-3.53-.04-.28-.21-.54-.45-.69l-.25-.16c-4.12-2.56-5.9-5.3-5.29-8.16.54-2.9,2.91-4.83,5.88-4.83.82,0,1.65.15,2.47.44.68.19,1.39.38,2.13.38.16,0,.33,0,.49-.03,2.18-.13,3.13-1.74,3.9-3.03.21-.35.42-.7.65-1.02.12-.14.29-.31.46-.48.26-.26.52-.52.73-.82.36-.52.49-1.21.53-1.86,0,.05,0,.09,0,.14.02,1.34.81,2.16,1.45,2.81.39.4.75.77.89,1.18.66,1.9,2.16,3.07,3.94,3.07.53,0,1.08-.1,1.63-.31.87-.31,1.79-.47,2.73-.47,2.64,0,4.85,1.24,6.07,3.41l.08.16c.6,1.13.68,2.28.25,3.54-1.09,3.21-5.03,5.86-6.05,6.32l-.16.08c-.8.44-.8,1-.8,1.78v1.09c-.03.55,0,1.17.01,1.77.09,2.64-.05,3.86-1.68,4.39-2.59,1.07-5.75,1.65-8.95,1.65h0ZM22.51,9.17c-.04-.48-.1-.84-.12-.93-.01-.07-.03-.13-.06-.2-.36-.86-1.22-.95-1.76-.99.42-.06.92-.15,1.33-.5.03-.02.05-.05.08-.07.41-.43.5-.98.54-1.46.04.48.13,1.03.54,1.46.03.03.06.06.09.09.38.31.85.41,1.29.48-.58.06-1.39.19-1.74,1-.13.38-.17.76-.18,1.13Z"/>
  <path class="cls-1" d="M22.52,12.96c.25.32.52.59.75.83.28.28.59.61.66.82.8,2.3,2.67,3.73,4.88,3.73.65,0,1.32-.13,1.94-.36.78-.28,1.6-.42,2.41-.42,2.26,0,4.14,1.04,5.18,2.86l.1.2c.46.86.51,1.73.17,2.73-.97,2.86-4.62,5.33-5.52,5.73-.06.03-.11.05-.16.08l-.06.03c-1.32.72-1.32,1.84-1.32,2.65v.56s0,.48,0,.48c-.03.62,0,1.25.01,1.85.09,2.69-.12,3.12-.99,3.41-.05.02-.1.03-.14.05-2.4,1-5.42,1.54-8.5,1.54-3.35,0-6.54-.64-8.99-1.81-.31-.16-.67-.4-.58-1.86,0-.07,0-.14,0-.21-.02-.49,0-1.19,0-1.93.02-1.32.05-2.69-.1-3.69-.08-.57-.41-1.07-.89-1.39-.07-.05-.16-.1-.27-.17-3.72-2.31-5.35-4.7-4.83-7.15.45-2.43,2.38-3.99,4.89-3.99.71,0,1.42.13,2.13.38.05.02.09.03.14.04.67.19,1.46.39,2.34.39.18,0,.37,0,.55-.03,2.72-.19,3.91-2.19,4.7-3.51.19-.32.38-.63.56-.89.11-.13.25-.26.39-.41.17-.17.36-.36.54-.57M22.51,3.25c-.3,0-.6.15-.76.45-.36.51-.07,1.63-.5,2.08-.58.49-1.91.05-2.22.96-.24.69.32,1.21,1.1,1.27.59.07,1.11.02,1.28.42.17.84.24,2.3-.24,3-.28.4-.78.8-1.17,1.27-1.08,1.47-1.63,3.51-3.86,3.65-.12.01-.25.02-.37.02-.6,0-1.21-.15-1.79-.32-.94-.34-1.89-.5-2.81-.5-3.3,0-6.2,2.11-6.86,5.62-1.13,5.32,4.95,8.71,5.98,9.37.2,1.36.01,3.98.07,5.42-.1,1.63.21,3,1.68,3.76,2.82,1.35,6.35,2.02,9.89,2.02,3.27,0,6.55-.57,9.26-1.7,3.17-1.04,2.23-4.41,2.36-7.11,0-.43,0-.81,0-1.09,0-.82.01-.74.37-.95,1.78-.81,9.06-5.99,6.28-11.22l-.1-.2c-1.48-2.64-4.17-3.92-6.94-3.92-1.04,0-2.08.18-3.08.53-.45.17-.87.25-1.27.25-1.41,0-2.5-.96-2.99-2.38-.47-1.43-2.27-2.05-2.29-3.64.02-.58-.09-1.37.09-1.88.3-.72,2.18-.02,2.42-1.23.17-1.39-1.64-.9-2.26-1.41-.43-.46-.14-1.57-.5-2.08-.16-.3-.46-.45-.76-.45h0Z"/>
</svg>