<?xml version="1.0" encoding="UTF-8"?>
<svg id="Layer_1" data-name="Layer 1" xmlns="http://www.w3.org/2000/svg" viewBox="0 0 45 45">
  <defs>
    <style>
      .cls-1 {
        fill: #2d2d2d;
      }

      .cls-1, .cls-2 {
        stroke-width: 0px;
      }

      .cls-2 {
        fill: #f9f9f9;
      }
    </style>
  </defs>
  <path class="cls-2" d="M28.27,39.09c-4.15,0-8.59,0-11.06,0h0c-.32,0-.54-.13-.72-.37-.28-.38-.38-.94-.23-1.4.54-2.03,1.83-3.34,3.33-4.86,1.29-1.31,2.62-2.66,3.59-4.59.62-1.03.91-2.78.2-4.03-.47-.83-1.3-1.29-2.33-1.29-1.4,0-2.7,1-3.74,1.8-.21.16-.42.32-.62.46-1.18.85-2.42,1.78-3.49,2.97-.26.28-.51.57-.74.84-.67.78-1.08,1.23-1.55,1.3-.1,0-.27.01-.43.01-2.13,0-4.44-1.2-4.52-3.44,0-.03,0-.07,0-.1-.06-.47,0-1.34.17-1.81,1.11-3.22,4.62-9.31,5.77-11.31l.3-.43c.86-1.23,1.74-2.51,1.87-4.55.06-.34.06-.72.06-1.12,0-.23,0-.58.02-.85.17.14.37.32.53.47.54.49,1.15,1.04,1.85,1.29.33.14.66.22,1,.22,1.18,0,2.04-.88,2.73-1.58.29-.3.77-.79.97-.82,0,0,.08.05.2.18h0c.96,1.61,2.44,2.68,4.19,3.04,11,2.14,14.13,16.33,13.39,28.96-.22.64-.66,1.02-1.2,1.02h-9.51Z"/>
  <path class="cls-1" d="M21.04,7.33c1.09,1.44,2.61,2.41,4.37,2.77,10.32,2,13.26,15.6,12.58,27.75-.07.14-.15.24-.22.24h0s-.08,0-.13,0h-.05s-9.35,0-9.35,0c-4.11,0-8.5,0-10.97,0-.06-.11-.11-.31-.06-.47,0-.03.02-.06.02-.08.46-1.74,1.67-2.96,3.06-4.37,1.27-1.29,2.7-2.74,3.74-4.79.75-1.3,1.13-3.41.21-5.03-.65-1.14-1.81-1.8-3.21-1.8-1.73,0-3.18,1.12-4.34,2.01-.2.16-.4.31-.59.45-1.17.84-2.51,1.85-3.62,3.08-.29.31-.55.61-.79.89-.3.35-.75.87-.93.96-.1,0-.2,0-.3,0-1.33,0-3.46-.67-3.52-2.47,0-.07,0-.14-.02-.21-.05-.36.01-1.05.11-1.32,0-.02.01-.04.02-.05,1.06-3.07,4.47-9,5.65-11.04.1-.14.19-.28.29-.42.88-1.27,1.88-2.71,2.04-4.99.33.24.69.45,1.09.59.44.19.9.29,1.36.29,1.61,0,2.67-1.09,3.45-1.88.03-.03.06-.06.09-.09M21.19,4.91c-1.22,0-2.23,2.4-3.69,2.4-.2,0-.41-.05-.63-.15-1.05-.33-2.13-1.95-2.93-2.03-1.19.09-.69,2.18-.89,3.04-.11,2.05-1.1,3.21-2.04,4.61-1.88,3.26-4.82,8.46-5.84,11.46-.24.65-.3,1.69-.22,2.29.09,2.88,2.9,4.4,5.52,4.4.2,0,.39,0,.59-.03,1.12-.17,1.75-1.26,2.88-2.46.98-1.09,2.15-1.97,3.33-2.83,1.09-.79,2.47-2.07,3.77-2.08h0c2.04,0,2.05,2.52,1.23,3.88-2.01,4-5.89,5.53-6.98,9.6-.43,1.35.41,3.07,1.85,3.07.02,0,.04,0,.06,0,2.47,0,6.89,0,11.03,0s8.06,0,9.4,0c.05,0,.09,0,.14,0,1.04,0,1.86-.74,2.19-1.84.86-14.18-3.12-27.97-14.18-30.12-1.52-.31-2.78-1.27-3.56-2.62l-.1-.12c-.33-.35-.64-.49-.93-.49h0Z"/>
</svg>