<?xml version="1.0" encoding="UTF-8"?>
<svg id="Layer_1" data-name="Layer 1" xmlns="http://www.w3.org/2000/svg" viewBox="0 0 45 45">
  <defs>
    <style>
      .cls-1 {
        fill: #2d2d2d;
      }

      .cls-1, .cls-2 {
        stroke-width: 0px;
      }

      .cls-2 {
        fill: #f9f9f9;
      }
    </style>
  </defs>
  <path class="cls-2" d="M31.6,38.29c-.2,0-.42,0-.65-.02-.31-.01-.66-.03-1.05-.03-.27,0-.57,0-.89.02h-15.83c-.58-.02-1.23-.29-1.54-.67-.46-.5-.63-1.21-.49-1.94.73-3.97,2.53-7.1,5.34-9.3,1.45-1.11,1.58-3.05.35-5.07-1.32-2.8.18-6.1,2.4-7.68.18-.13.31-.31.38-.52.23-.72-.06-1.36-.26-1.82-.07-.17-.19-.42-.18-.51,0-.06,0-.12-.01-.18-.14-.9.15-1.85.78-2.61.66-.78,1.57-1.24,2.51-1.26h.15c.9,0,1.79.42,2.43,1.13.64.71.95,1.63.86,2.53,0,.06,0,.11,0,.17.01.17-.12.46-.23.73-.22.51-.49,1.15-.25,1.85.07.2.2.37.37.49,2.24,1.57,3.74,4.89,2.38,7.71-1.6,2.68-.56,4.2.2,4.87,2.96,2.37,4.69,5.29,5.47,9.23.12.52.21,1.46-.42,2.13-.72.65-1.13.72-1.81.72Z"/>
  <path class="cls-1" d="M22.58,7.71c.63,0,1.24.3,1.7.8.45.5.67,1.14.61,1.77,0,.08-.01.16,0,.24-.03.09-.1.25-.14.36-.24.56-.64,1.5-.28,2.57.14.4.4.74.74.99,1.88,1.32,3.16,4.06,2.09,6.4-2.01,3.45-.39,5.43.41,6.12.02.02.04.04.07.06,2.77,2.21,4.34,4.87,5.08,8.61,0,.02,0,.04.01.05.05.23.14.8-.14,1.16-.52.45-.69.45-1.12.45-.19,0-.39,0-.61-.02-.32-.01-.68-.03-1.09-.03-.27,0-.57,0-.89.02h-2.49s-4.61,0-4.61,0h-4.36s-4.33,0-4.33,0c-.35,0-.72-.19-.82-.31-.02-.02-.04-.05-.06-.07-.21-.22-.29-.62-.2-1.05.69-3.76,2.32-6.6,4.96-8.67,1.85-1.42,2.09-3.9.63-6.34-1.06-2.32.22-5.06,2.1-6.39.36-.25.62-.61.75-1.03.34-1.09-.06-1.99-.31-2.53-.03-.07-.08-.17-.1-.23,0-.07-.01-.13-.02-.2-.09-.61.11-1.28.56-1.81.46-.55,1.12-.89,1.72-.9h.16M22.59,5.71h-.17c-2.51.05-4.65,2.48-4.26,5.02-.02.71.7,1.4.5,2.06-2.77,1.96-4.23,5.81-2.7,8.97.73,1.18,1.19,2.82-.08,3.8-2.54,1.99-4.81,5.05-5.7,9.89-.2,1,.03,2.05.71,2.78.54.64,1.49,1,2.31,1.02.33,0,2.08,0,4.37,0,2.69,0,6.13,0,8.97,0,.93,0,1.79,0,2.54,0,.3-.02.58-.02.84-.02.69,0,1.23.04,1.7.04.89,0,1.55-.15,2.54-1.04.74-.8.91-1.93.67-3.01-.96-4.85-3.21-7.72-5.79-9.78-1.16-1.01-.63-2.55.05-3.68,1.52-3.15.07-7.02-2.71-8.97-.22-.64.59-1.47.53-2.32.25-2.5-1.82-4.75-4.29-4.77h0Z"/>
</svg>