<?xml version="1.0" encoding="UTF-8"?>
<svg id="Layer_1" data-name="Layer 1" xmlns="http://www.w3.org/2000/svg" viewBox="0 0 45 45">
  <defs>
    <style>
      .cls-1 {
        fill: #2d2d2d;
      }

      .cls-1, .cls-2 {
        stroke-width: 0px;
      }

      .cls-2 {
        fill: #f9f9f9;
        fill-rule: evenodd;
      }
    </style>
  </defs>
  <path class="cls-2" d="M22.5,39.29c-3.64,0-7.16-.17-10.18-.5-2.35-.17-2.36-.91-2.37-1.18l.02-.33c.03-.2.04-.25.06-.32v-.04s.32-.64.32-.64c1.48-3.01,2.46-5-.69-8.6-1.33-1.6-1.65-3.94-1.98-6.42-.21-1.55-.42-3.15-.92-4.58-.42-1.02-1.16-1.64-1.81-2.19-.45-.38-.87-.74-1.13-1.16-.27-.41-.34-.92-.2-1.39.08-.26.28-.72.81-.95.24-.12.46-.17.7-.17.78,0,1.51.51,1.65,1.16.16.58.08,1.22,0,1.9-.05.4-.1.79-.11,1.18-.12,1.24.83,2.69,1.84,4.23.28.42.56.85.81,1.26.23.33.52.8.84,1.32,1.54,2.46,1.89,2.98,2.63,2.98h0c.19,0,.4-.06.55-.16.15-.09.26-.22.35-.37.37-.69.33-1.71.29-2.89-.02-.54-.04-1.09,0-1.5,0-.05,0-.11,0-.16-.06-.73-.02-1.49,0-2.29.07-1.67.14-3.4-.59-5-.02-.04-.04-.07-.06-.11-.18-.3-.4-.6-.63-.91-.55-.75-1.08-1.46-1.02-2.19.03-.84.78-1.54,1.59-1.54h.12c.99.15,1.25.58,1.33.73.27.46.42,1.45-.39,3.54-.01.04-.03.08-.04.12-.37,1.46.17,2.71.63,3.81.15.34.29.69.41,1.05.34.78.67,1.65,1.01,2.57.59,1.58,1.2,3.21,1.84,4.28.1.16.24.29.4.38.14.07.33.12.49.12.97,0,1.16-.92,1.38-1.98.21-1.11.48-2.42.76-3.76.48-2.33.98-4.75,1.21-6.32.13-1.24-.41-2.2-.88-3.05-.43-.77-.81-1.44-.67-2.19.1-.56.51-1.04,1.04-1.21.2-.08.37-.11.54-.11.48,0,.97.24,1.3.63.18.21.46.64.36,1.2-.08.58-.38,1.14-.69,1.74-.55,1.05-1.23,2.35-.74,3.94.25,1.28.69,3.45,1.1,5.48l.62,3.09c.07.29.12.54.16.76.17.84.36,1.8,1.33,1.8h0c.87,0,1.21-.88,1.52-1.65.58-1.42,2.74-6.67,2.74-6.67l.18-.46c.34-.84.69-1.7.58-2.78,0-.05-.01-.09-.02-.14-.09-.36-.22-.75-.35-1.16-.71-2.18-.76-3,.36-3.57.22-.11.45-.17.69-.17.71,0,1.52.48,1.66,1.29.16.78-.24,1.41-.92,2.37-.38.53-.77,1.08-1.02,1.7-.02.04-.03.08-.04.12-.34,1.35-.3,2.73-.27,4.06.02.69.04,1.35,0,2,.02.6,0,1.19,0,1.78-.02,1.11-.04,2.15.11,2.9.01.06.03.11.05.17.18.45.57.73,1.03.73.68,0,1.06-.57,1.43-1.11,1.04-1.6,2.45-3.8,3.52-5.48l.11-.17c.61-.95,1.19-2,1.06-3.35-.63-3.6.67-3.84,1.16-3.93l.15-.02c.06,0,.13-.01.2-.01.75,0,1.48.58,1.6,1.28.22.98-.46,1.66-1.6,2.66-.26.23-.52.45-.75.68-.04.04-.08.08-.11.13-1.13,1.55-1.42,3.82-1.7,6.01-.29,2.22-.58,4.52-1.7,5.84-2.69,3.17-2.94,5-1.19,8.89.28.76.47,1.82.03,2.12-.37.24-1.06.32-1.68.39-3.06.33-6.58.51-10.22.51Z"/>
  <path class="cls-1" d="M22.46,6.71c.18,0,.4.11.54.28.08.09.16.23.13.42-.06.39-.31.88-.59,1.4-.01.03-.03.05-.04.08-.03-.05-.06-.1-.09-.15-.44-.78-.62-1.17-.56-1.54.03-.18.19-.37.37-.43.03,0,.06-.02.09-.03.05-.02.09-.03.14-.03M31.59,8.75c.31,0,.64.22.68.46,0,.03,0,.05.02.08.07.34-.24.81-.77,1.54-.03.04-.06.09-.09.13-.6-1.88-.42-1.97-.05-2.16.06-.03.13-.05.21-.05M13.28,8.75c.34.06.54.16.58.23.01.02.27.49-.24,2.05-.04-.05-.07-.1-.11-.15-.4-.54-.86-1.16-.83-1.52,0-.03,0-.05,0-.08,0-.25.29-.52.59-.54M39.8,11.79c.28,0,.58.25.61.44,0,.04.01.07.02.11.08.35-.32.78-1.25,1.59-.12-.92-.14-2.01.41-2.11l.15-.02s.04,0,.06,0M5.13,11.83c.34,0,.65.23.68.38,0,.03.01.06.02.08.09.35.03.9-.04,1.48,0,.04,0,.07-.01.11-.06-.05-.12-.1-.18-.15-.38-.32-.75-.63-.92-.91-.01-.02-.03-.05-.05-.07-.09-.13-.1-.33-.05-.52.03-.11.1-.25.25-.31.03-.01.06-.03.09-.04.07-.03.15-.04.21-.04M22.5,17.36c.09.46.19.92.28,1.38.24,1.19.47,2.34.65,3.23,0,.02,0,.04.01.06.06.25.1.48.15.7.17.85.52,2.6,2.31,2.6,1.54,0,2.11-1.43,2.44-2.26.49-1.19,1.09-2.66,1.67-4.08,0,.08,0,.17,0,.25,0,.06,0,.12,0,.17.02.47,0,1.06,0,1.63-.02,1.16-.04,2.26.13,3.12.02.12.06.23.1.34.32.83,1.09,1.36,1.96,1.36,1.21,0,1.84-.94,2.28-1.58.52-.81,1.15-1.77,1.77-2.75-.26,2.04-.54,4.12-1.45,5.19-2.93,3.45-3.24,5.68-1.37,9.88.17.48.22.82.23,1.01-.29.08-.77.13-1.09.17-2.98.32-6.46.5-10.07.5s-7.09-.17-10.07-.5c-.02,0-.05,0-.07,0-.85-.06-1.24-.2-1.4-.28h0s0-.13,0-.13c0-.04.01-.07.02-.1l.27-.55c1.54-3.13,2.75-5.6-.8-9.66-1.11-1.33-1.43-3.39-1.73-5.6.17.25.38.59.6.95,1.61,2.59,2.16,3.46,3.48,3.46.38,0,.77-.11,1.09-.31.29-.18.53-.44.7-.75.49-.92.45-2.12.41-3.4-.02-.51-.04-1.04,0-1.39,0-.11,0-.21,0-.32-.02-.32-.03-.66-.03-1.02.15.39.3.8.46,1.22.61,1.62,1.23,3.29,1.91,4.44.19.32.47.59.81.76.28.15.63.23.95.23,1.78,0,2.14-1.74,2.36-2.81.21-1.09.48-2.39.75-3.72.1-.48.2-.96.3-1.44M22.46,4.71c-.28,0-.57.05-.85.16-.88.29-1.56,1.08-1.71,1.99-.38,2.1,1.75,3.41,1.55,5.28-.35,2.45-1.39,7.04-1.96,10.02-.16.76-.26,1.18-.4,1.18-.01,0-.02,0-.04,0-.95-1.6-1.91-4.74-2.76-6.66-.5-1.47-1.41-2.77-1.02-4.3.83-2.14,1.47-5.15-1.79-5.62-.07,0-.13,0-.2,0-1.34,0-2.54,1.11-2.59,2.46-.11,1.47,1.14,2.62,1.8,3.7.96,2.1.32,4.64.49,6.96-.1,1.25.21,3.29-.17,4,0,0-.01,0-.02,0-.31,0-1.98-2.91-2.61-3.82-1.07-1.76-2.65-3.74-2.5-4.91.03-1.1.38-2.27.09-3.37-.26-1.17-1.45-1.95-2.63-1.95-.38,0-.75.08-1.1.25-1.46.63-1.89,2.52-1.07,3.77.75,1.25,2.28,1.8,2.85,3.17,1.23,3.53.63,8.38,3.09,11.33,2.92,3.34,1.89,4.71.19,8.22-.06.21-.07.18-.13.62,0,.11-.01.33-.02.44.02,1.68,1.86,2.06,3.26,2.16,3.11.34,6.7.51,10.29.51s7.17-.17,10.28-.51c.75-.08,1.59-.17,2.17-.56,1.05-.71.71-2.31.32-3.36-1.55-3.46-1.44-4.93,1.04-7.84,2.49-2.93,1.38-9.08,3.44-11.91,1.18-1.15,3.07-2.29,2.64-4.22-.2-1.18-1.34-2.11-2.58-2.11-.12,0-.24,0-.35.03l-.17.03c-2.47.45-2.28,3.23-1.97,5.01.1,1.02-.35,1.85-.91,2.72-1.08,1.7-2.55,4-3.61,5.63-.29.43-.48.67-.6.67-.04,0-.07-.03-.1-.09-.21-1.03-.04-3.02-.09-4.43.1-1.98-.24-4,.24-5.86.59-1.49,2.39-2.75,1.99-4.61-.21-1.27-1.42-2.13-2.65-2.13-.39,0-.78.09-1.14.28-2.54,1.29-.99,4-.53,5.86.1.99-.32,1.79-.69,2.75-.83,2.03-1.93,4.73-2.74,6.68-.29.73-.47,1.02-.59,1.02-.21,0-.28-.79-.51-1.75-.48-2.41-1.34-6.64-1.73-8.62-.66-2,1.18-3.4,1.45-5.26.26-1.59-1.14-2.99-2.66-2.99h0Z"/>
</svg>