<?xml version="1.0" encoding="UTF-8"?>
<svg id="Layer_1" data-name="Layer 1" xmlns="http://www.w3.org/2000/svg" viewBox="0 0 45 45">
  <defs>
    <style>
      .cls-1 {
        fill: #2d2d2d;
      }

      .cls-1, .cls-2 {
        stroke-width: 0px;
      }

      .cls-2 {
        fill: #f9f9f9;
      }
    </style>
  </defs>
  <path class="cls-2" d="M8.65,38v-1.61c0-.21.08-.42.21-.59l.53-.65c4.88-6.02,4.97-6.27,4.81-13.17-.02-.79-.04-1.68-.05-2.68-.02-3-1.03-4.76-1.93-6.31-.94-1.63-1.76-3.04-1.5-5.87,0-.06.05-.1.11-.1h2.23l.1.07c-.01,1.06.24,1.84.77,2.37.69.7,1.66.8,2.6.8.29,0,.6,0,.92-.02.34-.01.7-.02,1.08-.02h0c.82,0,1.29-.32,1.55-.59.66-.69.7-1.74.68-2.61h3.39c-.02,1.07.21,1.84.71,2.38.69.76,1.69.86,2.66.86.29,0,.6,0,.92-.02.34-.01.7-.02,1.08-.02h0c.82,0,1.28-.32,1.54-.58.64-.65.71-1.64.69-2.51l.1-.11h2.3c.05,0,.1.05.11.1.25,2.81-.56,4.23-1.51,5.87-.9,1.56-1.91,3.33-1.93,6.32-.01,1.01-.04,1.9-.05,2.71-.16,6.86-.07,7.11,4.71,13l.51.63c.21.27.33.6.33.95v1.41H8.65Z"/>
  <path class="cls-1" d="M21.74,8h1.47c.1.71.35,1.44.92,2.06.96,1.04,2.26,1.19,3.4,1.19.3,0,.62-.01.96-.02.33-.01.68-.02,1.04-.02.02,0,.07,0,.08,0,1.09,0,1.79-.48,2.18-.88.68-.69.89-1.6.96-2.32h.58c.02,1.97-.63,3.1-1.42,4.48-.91,1.59-2.04,3.56-2.06,6.8-.01,1.01-.03,1.91-.05,2.71-.16,7.09.02,7.6,4.93,13.66l.51.63c.07.09.11.2.11.32v.41H9.64v-.58s.52-.65.52-.65c5.01-6.18,5.2-6.7,5.04-13.83-.02-.79-.04-1.67-.05-2.65-.02-3.28-1.15-5.24-2.06-6.82-.79-1.37-1.44-2.49-1.42-4.48h.54c.12.89.45,1.6,1,2.15.95.97,2.21,1.1,3.31,1.1.3,0,.62-.01.96-.02.33-.01.68-.02,1.04-.02.02,0,.07,0,.08,0,1.1,0,1.8-.49,2.2-.9.64-.67.87-1.51.94-2.3M31.87,6c-.62,0-1.11.51-1.1,1.13.02.99-.08,2.08-1.16,2.08-.01,0-.02,0-.04,0-.01,0-.03,0-.04,0-.74,0-1.41.04-2,.04-1.59,0-2.55-.32-2.34-2.69.03-.3-.22-.55-.52-.55-1.08,0-3.38,0-4.41,0-.29,0-.52.24-.51.53.03,1.08.17,2.67-1.14,2.67-.01,0-.02,0-.04,0-.01,0-.03,0-.04,0-.74,0-1.41.04-2,.04-1.46,0-2.39-.27-2.37-2.16,0-.6-.5-1.08-1.1-1.08h-2.23c-.57,0-1.05.44-1.1,1.01-.54,6,3.4,6.52,3.43,12.29.14,9.74.81,8.6-5.06,15.86-.28.34-.43.78-.43,1.22v1.83c0,.43.35.78.78.78h28.14c.43,0,.78-.35.78-.78v-1.63c0-.57-.2-1.13-.56-1.58-5.75-7.11-5.08-5.97-4.94-15.7.03-5.74,3.97-6.34,3.43-12.29-.05-.57-.53-1.01-1.1-1.01h-2.3Z"/>
</svg>